<svg xmlns="http://www.w3.org/2000/svg" viewBox="0 0 90 90"><defs><style>.cls-1{fill:#ecf0f1;}.cls-2{fill:#4245d7;}.cls-3{fill:#e64c3c;}.cls-4{fill:#3f97ff;fill-rule:evenodd;}</style></defs><title>badge</title><g id="badge"><g id="badge-2" data-name="badge"><path class="cls-1" d="M45,76.67h-.15a31.62,31.62,0,0,1,0-63.25h.29a31.62,31.62,0,0,1,0,63.25Z"/><path class="cls-2" d="M45,13.33h-.15A31.61,31.61,0,0,0,13.33,45c0,.6,0,1.19.05,1.78H76.61c0-.59.06-1.18.06-1.78A31.62,31.62,0,0,0,45.15,13.33Z"/><polygon class="cls-1" points="45 35.07 38.83 38.34 40 31.42 35 26.52 41.91 25.5 45 19.21 48.09 25.5 55 26.52 50 31.42 51.18 38.34 45 35.07"/><path class="cls-3" d="M19.78,46.82V64.07a31.58,31.58,0,0,0,10.43,9V46.82Z"/><path class="cls-3" d="M39.78,46.82V76.22a31.32,31.32,0,0,0,5.07.45h.29a31.32,31.32,0,0,0,5.07-.45V46.82Z"/><path class="cls-3" d="M58,46.82v27a31.49,31.49,0,0,0,10.43-7.68V46.82Z"/><path class="cls-4" d="M79.06,54.12a10,10,0,0,1-9.13,15.8,10,10,0,0,1-15.81,9.13,10,10,0,0,1-18.25,0,10,10,0,0,1-15.81-9.13,10,10,0,0,1-9.13-15.8,10,10,0,0,1,0-18.25,10,10,0,0,1,9.12-15.81,10,10,0,0,1,15.81-9.12,10,10,0,0,1,18.25,0,10,10,0,0,1,15.81,9.12,10,10,0,0,1,9.12,15.81,10,10,0,0,1,0,18.25ZM13.37,45A31.63,31.63,0,1,0,45,13.37,31.63,31.63,0,0,0,13.37,45Z"/></g></g></svg>