<svg xmlns="http://www.w3.org/2000/svg" viewBox="0 0 90 90"><defs><style>.cls-1{fill:#e64c3c;}.cls-2{fill:#ecf0f1;}.cls-3{fill:#4245d7;}</style></defs><title>heart</title><g id="heart"><g id="heart-2" data-name="heart"><path class="cls-1" d="M81.89,41.7C84.45,38.31,85,35,85,31a19.91,19.91,0,1,0-39.83,0c0,.25,0,.51,0,.76h0c0-.25,0-.5,0-.76A19.91,19.91,0,1,0,5.34,31c0,.23,0,.47,0,.7h0a17.39,17.39,0,0,0,3.07,9.94c2.15,3,37,37.72,37,37.72S79.34,45.1,81.89,41.7Z"/><path class="cls-2" d="M35.32,69.3h20c2.79-2.84,5.91-6,9-9.19H26.18C29.32,63.27,32.49,66.46,35.32,69.3Z"/><path class="cls-2" d="M17.14,50.91H73.3c4.43-4.6,7.82-8.19,8.58-9.19H8.46C9.16,42.66,12.61,46.27,17.14,50.91Z"/><path class="cls-2" d="M85,31a19.84,19.84,0,0,0-1.85-8.38H47A19.83,19.83,0,0,0,45.17,31c0,.25,0,.51,0,.76h0c0-.25,0-.5,0-.76a19.83,19.83,0,0,0-1.85-8.38H7.19A19.84,19.84,0,0,0,5.34,31c0,.23,0,.47,0,.7h0v.11H85C85,31.58,85,31.3,85,31Z"/><path class="cls-3" d="M44.82,31.28h0c0-.06,0-.12,0-.18V29.94A19.91,19.91,0,0,0,5,30.52c0,.23,0,.47,0,.7H5a17.39,17.39,0,0,0,3.07,9.94c.66.92,4.43,4.86,9.32,9.86H44.82Z"/><polygon class="cls-2" points="24.87 21.58 27.79 27.49 34.31 28.44 29.59 33.04 30.71 39.53 24.87 36.47 19.04 39.53 20.15 33.04 15.43 28.44 21.96 27.49 24.87 21.58"/></g></g></svg>