<svg xmlns="http://www.w3.org/2000/svg" xmlns:xlink="http://www.w3.org/1999/xlink" version="1.1" x="0px" y="0px" viewBox="0 0 100 100" enable-background="new 0 0 100 100" xml:space="preserve"><g><g><circle fill="none" cx="58.593" cy="63.391" r="3.906"></circle><polyline fill="none" points="83.027,52.326 83.027,27.072 75.521,29.346 68.755,27.072 68.755,52.326   "></polyline><polygon fill="none" points="73.077,12.179 58.45,10.745 43.681,12.179 43.681,15.764 73.077,15.764   "></polygon><circle fill="none" cx="58.593" cy="73.1" r="3.906"></circle><polyline fill="none" points="48.647,52.326 48.647,27.072 41.141,29.346 34.375,27.072 34.375,52.326   "></polyline><polyline fill="none" points="65.729,52.326 65.729,27.072 58.008,29.346 51.457,27.072 51.457,52.326   "></polyline><circle cx="23.392" cy="30.489" r="4.508"></circle><path d="M37.347,18.403h42.065V9.246h1.403V6.542H61.423c0.032-0.174,0.054-0.352,0.054-0.534c0-1.709-1.387-3.096-3.098-3.096    s-3.097,1.386-3.097,3.096c0,0.182,0.024,0.36,0.053,0.534H35.944v2.704h1.403V18.403z M43.681,12.179l14.77-1.434l14.627,1.434    v3.585H43.681V12.179z"></path><path d="M89.563,83.95h-9.859H41.086H37.64h-8.5h-0.014c0.072-12.253,0.016-25.489,0.028-37.894v-2.979    c-0.004-0.008-0.007-0.021,0-0.044v-0.37c0-0.468,0.363-0.848,0.811-0.848c0.447,0,0.811,0.38,0.811,0.848v0.073l0.001,39.578    h55.767v-62.44H30.776l0.02,15.966H17.349c-4.185-3.738-5.114-5.338-9.189-9.223c-2.169-2.073-5.368,1.339-3.558,3.097    C9.037,34.961,12,37.086,16.486,42.284c0.175,14.019-0.007,28.388,0.19,42.35c-0.237,3.375,4.793,4.199,5.165-0.037    c0.151-8.065-0.01-15.553,0.061-23.625h1.582c0.046,7.659,0,15.319,0.013,22.979h-0.001v4.57H37.64v3.824l5.258-0.371v1.988h4.781    V91.64l10.345-0.729l11.881,0.786v2.266h4.781v-1.947l5.019,0.33v-3.824h13.013v-4.57H89.563z M58.593,77.006    c-2.156,0-3.904-1.749-3.904-3.907c0-2.155,1.748-3.904,3.904-3.904s3.905,1.749,3.905,3.904    C62.498,75.257,60.749,77.006,58.593,77.006z M58.593,67.297c-2.156,0-3.904-1.749-3.904-3.906c0-2.156,1.748-3.905,3.904-3.905    s3.905,1.749,3.905,3.905C62.498,65.548,60.749,67.297,58.593,67.297z M68.755,27.072l6.766,2.274l7.507-2.274V55.75H68.755    V27.072z M51.457,27.072l6.551,2.274l7.721-2.274V55.75H51.457V27.072z M34.375,27.072l6.766,2.274l7.506-2.274V55.75H34.375    V27.072z"></path></g><circle cx="58.593" cy="63.391" r="2.666"></circle></g></svg>