<svg xmlns="http://www.w3.org/2000/svg" xmlns:xlink="http://www.w3.org/1999/xlink" version="1.1" x="0px" y="0px" viewBox="0 0 100 100" enable-background="new 0 0 100 100" xml:space="preserve"><g><path d="M29.5,33H32c0.7,0,1.2-0.6,1.2-1.2c0-0.7-0.6-1.2-1.2-1.2h-1.2v-3.2c0-0.7-0.6-1.2-1.2-1.2c-0.7,0-1.2,0.6-1.2,1.2v4.4   C28.3,32.4,28.8,33,29.5,33z"></path><path d="M88.8,49.7c0-1.8,0-3.9-1.2-5.8c-1.2-1.9-3.2-3.1-5.2-4.1v-5.4c0-2-1.4-3.6-3.3-4c0.1-1,0.2-2.1,0.1-3.2   c-0.5-4.7-4.8-8.5-9.6-8.5h-0.2c-4.8,0-9.1,3.8-9.6,8.5c-0.1,1.1-0.1,2.2,0,3.1H50c-2.3,0-4.1,1.8-4.1,4.1v6.8   c-1.3-0.9-2.8-1.6-4.1-2.2c-0.7-0.3-1.4-0.7-2-1c-1-0.5-1.5-1.3-0.7-3.5c0.9-2.6,1.4-4.7,1.2-7.3c-0.5-4.7-4.8-8.5-9.6-8.5h-0.2   c-4.8,0-9.1,3.8-9.6,8.5c-0.3,2.9,0.4,5.1,1.2,7.3c0.7,1.9,0.4,2.7-0.4,3.3c0,0,0,0,0,0c-0.1,0.1-0.2,0.1-0.3,0.2   c-0.6,0.3-1.3,0.7-2,1c-2.5,1.2-5.3,2.5-6.8,4.9c-1.2,1.8-1.3,3.9-1.2,5.7l0,7.5c0,0,0,0.1,0,0.1v13.2c0,0.7,0.6,1.2,1.2,1.2h33.5   v1.8c0,2.3,1.8,4.1,4.1,4.1h2.9l-1.8,8.2c-0.1,0.4,0,0.8,0.2,1.1s0.6,0.5,1,0.5h4.9c0.6,0,1.1-0.4,1.2-1l1.9-8.7h7.5l1.9,8.7   c0.1,0.6,0.6,1,1.2,1H76c0.4,0,0.7-0.2,1-0.5s0.3-0.7,0.2-1.1l-1.8-8.2h2.9c2.3,0,4.1-1.8,4.1-4.1v-1.8h5.1c0.7,0,1.2-0.6,1.2-1.2   V57.2c0,0,0-0.1,0-0.1L88.8,49.7z M23.3,27.5c0.3-3.4,3.6-6.2,7.1-6.2h0.2c3.5,0,6.8,2.8,7.1,6.2c0.2,2.2-0.2,3.9-1,6.3   c-0.5,1.3-0.6,2.5-0.4,3.5c-1.9,1.7-3.8,2.6-5.8,2.6c-1.4,0-2.6-0.5-3.6-1c0,0-0.1,0-0.1-0.1c-0.9-0.5-1.6-1.1-2-1.5   c0.2-1,0.1-2.2-0.4-3.5C23.5,31.3,23.1,29.6,23.3,27.5z M35.6,50.6L34.3,46l1.8-5.5c0.5-0.3,1-0.7,1.5-1.1c0,0,0,0,0,0   C37.6,40.8,37.4,44.7,35.6,50.6z M29.1,47.7c0.5,0.1,1,0.2,1.6,0.2c0.5,0,1-0.1,1.5-0.2l2,7c-0.2,0.4-0.3,0.9-0.5,1.3h-6.1   c-0.2-0.4-0.4-0.9-0.5-1.3L29.1,47.7z M28.3,41.9c0.7,0.2,1.4,0.3,2.1,0.3c0.1,0,0.1,0,0.2,0c0.8,0,1.6-0.1,2.3-0.3l-1,3.2   c-1.1,0.5-2.1,0.2-2.6,0L28.3,41.9z M27,46l-1.4,4.6c-1.8-5.7-2-9.6-2-11.1c0.4,0.3,1,0.7,1.6,1.1L27,46z M24.9,56H13.7l0-6.4   c0-1.8,0.1-3.2,0.8-4.3c1.2-1.8,3.5-2.9,5.8-4c0.3-0.1,0.6-0.3,0.9-0.4C21.3,43.6,22.1,48.9,24.9,56z M45.9,59.6v9.6H13.7v-9.6   v-1.1h12.2h2.5h4.4h2.5h10.6V59.6z M45.9,56h-9.6c0.1-0.2,0.2-0.4,0.2-0.6c0,0,0,0,0,0c2.6-6.7,3.3-11.8,3.4-14.4   c0.2,0.1,0.5,0.2,0.7,0.3c1.9,0.9,3.9,1.8,5.2,3.2V56z M62.3,27.5c0.3-3.4,3.6-6.2,7.1-6.2h0.2c3.5,0,6.8,2.8,7.1,6.2   c0.1,1,0.1,1.9-0.1,2.9h-6.9v-3c0-0.7-0.6-1.2-1.2-1.2s-1.2,0.6-1.2,1.2v3h-4.9C62.2,29.4,62.1,28.5,62.3,27.5z M59.7,69.2   l-0.3,1.2l-0.3,1.2L58.4,75l-0.3,1.2l-0.3,1.2l-1.6,7.2h-2.4l1.6-7.2l0.3-1.2L56,75l0.7-3.4l0.3-1.2l0.3-1.2l1.9-8.5h2.4L59.7,69.2   z M53.6,58.1v-0.9v-0.2v-1h4h1.3h0.8h0.5h3.7h2.7h1.7h0.5h0.8h1.3h1.8h2.2v1v0.2v0v0.9h-0.4h-2.7h-0.5h-1.3h-1.3h-1.3h-1.2H66h-1.3   h-0.5h-0.1h-1.8h-0.2h-2.5h-1.3h-1.3H53.6z M61,75l0.7-3.4l0.3-1.2l0.3-1.2l1.9-8.5h0.1l1.9,8.5l0.3,1.2l0.3,1.2l0.7,3.4H61z    M72.1,84.8l-1.6-7.2l-0.3-1.2L69.9,75l-0.7-3.4l-0.3-1.2l-0.3-1.2l-1.9-8.5h2.4l1.9,8.5l0.3,1.2l0.3,1.2l0.7,3.4l0.3,1.2l0.3,1.2   l1.6,7.2H72.1z M79.9,38.6V40v1.4V56v1.1v0.2v1.1v0.2v1.1v9.6v1.2v1.2v1.8c0,0.9-0.7,1.6-1.6,1.6h-3.4l-0.7-3.4l-0.3-1.2l-0.3-1.2   l-1.9-8.5H76c0.6,0,1.1-0.5,1.2-1.1c0-0.1,0-0.1,0-0.2v-0.9v-0.2v-1.1v-0.2V56v-1.2c0-0.6-0.5-1.1-1.1-1.2c-0.1,0-0.1,0-0.2,0h-0.6   h-1.8h-0.8h-6.5h-0.8h-1.8h-0.8H52.7h-0.3c-0.4,0-0.7,0.2-0.9,0.4c-0.2,0.2-0.3,0.5-0.3,0.8V56v1.2v1.2v0.9c0,0,0,0.1,0,0.1   c0.1,0.6,0.6,1.1,1.2,1.1h4.3l-1.9,8.5l-0.3,1.2l-0.3,1.2L53.4,75H50c-0.9,0-1.6-0.7-1.6-1.6v-1.8v-1.2v-1.2v-9.6v-1.1v-0.2v-1.1   V56v-9.1v-3.2v-9.2c0-0.9,0.7-1.6,1.6-1.6h10.3h1.3H63h4.9h3.7H76h1.3h1c0.1,0,0.2,0,0.3,0c0.8,0.1,1.3,0.8,1.3,1.6V38.6z    M86.3,59.6v9.6h-3.9v-9.6v-1.1h3.9V59.6z M86.3,49.6l0,6.4h-3.9V42.6c1.3,0.7,2.4,1.5,3.1,2.6C86.3,46.5,86.3,48.1,86.3,49.6z"></path></g></svg>