<svg xmlns="http://www.w3.org/2000/svg" xmlns:xlink="http://www.w3.org/1999/xlink" version="1.1" x="0px" y="0px" viewBox="0 0 100 100" enable-background="new 0 0 100 100" xml:space="preserve"><path fill="#000000" d="M7.381,79.14V37.409h16.667v-2.381H9.064l13.211-13.211h5.305l2.661-2.381h-8.459  c-0.315,0-0.618,0.125-0.841,0.349L5.35,35.374c-0.11,0.11-0.198,0.243-0.259,0.389c-0.053,0.131-0.076,0.27-0.082,0.408  C5.01,36.187,5,36.2,5,36.217v0.424v0.766V80.33c0,0.657,0.533,1.19,1.19,1.19h14.448V79.14H7.381z M94.593,38.703l-9.315-12.257  c-0.35-0.461-0.882-0.746-1.459-0.784c-0.044-0.003-0.086-0.004-0.13-0.004c-0.532,0-1.043,0.213-1.42,0.593l-0.573,0.579V13.486  c0-0.657-0.533-1.191-1.19-1.191H40.892c-0.315,0-0.618,0.126-0.841,0.349L26.05,26.647c-0.224,0.224-0.349,0.526-0.349,0.841  v13.459h-1.256c-0.727,0-1.398,0.393-1.754,1.028L13.613,58.21c-0.348,0.622-0.34,1.381,0.02,1.996  c0.36,0.615,1.02,0.993,1.732,0.993h7.292v25.315c0,0.657,0.533,1.19,1.191,1.19H67.96c0.155,0,0.31-0.031,0.455-0.091  c0.146-0.06,0.278-0.149,0.389-0.259l15.589-15.589c0.224-0.224,0.349-0.526,0.349-0.841V51.109l9.682-9.796  C95.122,40.606,95.194,39.494,94.593,38.703z M67.724,41.093c-0.031-0.012-0.064-0.019-0.095-0.03l0.372-0.361  C67.889,40.824,67.799,40.955,67.724,41.093z M15.367,59.19l9.078-16.234h42.529L61.285,59.19H25.038h-2.381H15.367z M25.038,85.325  V61.199h36.246c0.854,0,1.613-0.539,1.895-1.345l3.589-10.246v35.717H25.038z M82.362,70.43L69.151,83.641V44.659l9.209,9.944  c0.37,0.4,0.888,0.63,1.432,0.64c0.011,0,0.022,0,0.033,0c0.533,0,1.045-0.213,1.42-0.593l1.118-1.131V70.43z M79.824,53.246  L69.458,42.052L83.69,27.653l9.315,12.257L79.824,53.246z"></path></svg>